<?xml version="1.0" encoding="UTF-8" standalone="no"?>
<svg
   width="1254"
   height="1254"
   viewBox="0 0 1254 1254"
   version="1.1"
   id="svg3"
   sodipodi:docname="icona scuro.svg"
   inkscape:version="1.4.4 (dcaf3e7, 2026-05-05)"
   xmlns:inkscape="http://www.inkscape.org/namespaces/inkscape"
   xmlns:sodipodi="http://sodipodi.sourceforge.net/DTD/sodipodi-0.dtd"
   xmlns="http://www.w3.org/2000/svg"
   xmlns:svg="http://www.w3.org/2000/svg">
  <defs
     id="defs3" />
  <sodipodi:namedview
     id="namedview3"
     pagecolor="#ffffff"
     bordercolor="#000000"
     borderopacity="0.25"
     inkscape:showpageshadow="2"
     inkscape:pageopacity="0.0"
     inkscape:pagecheckerboard="0"
     inkscape:deskcolor="#d1d1d1"
     inkscape:zoom="0.64354067"
     inkscape:cx="626.22305"
     inkscape:cy="692.26394"
     inkscape:window-width="1920"
     inkscape:window-height="1009"
     inkscape:window-x="-8"
     inkscape:window-y="-8"
     inkscape:window-maximized="1"
     inkscape:current-layer="svg3" />
  <path
     d="M 341.00 499.50 L 338.50 497.00 L 350.50 467.00 L 362.50 443.00 L 376.50 420.00 L 394.50 396.00 L 409.50 379.00 L 444.00 347.50 L 471.00 328.50 L 490.00 317.50 L 506.00 309.50 L 539.00 296.50 L 587.00 285.50 L 616.00 282.50 L 622.00 282.50 L 623.50 284.00 L 623.50 338.00 L 622.00 339.50 L 593.00 342.50 L 563.00 349.50 L 540.00 357.50 L 507.00 373.50 L 480.00 391.50 L 451.50 417.00 L 426.50 448.00 L 410.00 475.50 L 389.00 477.50 L 369.00 483.50 L 351.00 492.50 L 341.00 499.50 Z M 433.00 724.50 L 404.00 724.50 L 389.00 721.50 L 375.00 716.50 L 352.00 703.50 L 329.50 682.00 L 320.50 669.00 L 311.50 650.00 L 305.50 624.00 L 305.50 600.00 L 308.50 584.00 L 313.50 569.00 L 327.50 544.00 L 346.00 524.50 L 360.00 514.50 L 378.00 505.50 L 399.00 499.50 L 432.00 498.50 L 444.00 500.50 L 463.00 506.50 L 486.00 519.50 L 504.50 536.00 L 518.50 555.00 L 526.50 572.00 L 532.50 595.00 L 533.50 619.00 L 529.50 642.00 L 524.50 656.00 L 510.50 680.00 L 495.00 696.50 L 477.00 709.50 L 458.00 718.50 L 433.00 724.50 Z M 758.00 714.50 L 712.00 714.50 L 709.50 712.00 L 663.50 612.00 L 641.00 567.50 L 634.50 578.00 L 587.50 676.00 L 589.00 677.50 L 646.00 677.50 L 662.50 713.00 L 661.00 714.50 L 524.00 714.50 L 522.50 713.00 L 615.50 519.00 L 622.00 508.50 L 660.00 508.50 L 662.50 511.00 L 758.50 709.00 L 759.50 713.00 L 758.00 714.50 Z M 933.00 714.50 L 827.00 714.50 L 816.00 712.50 L 791.00 702.50 L 778.00 693.50 L 762.50 678.00 L 752.50 663.00 L 743.50 641.00 L 739.50 621.00 L 739.50 606.00 L 743.50 584.00 L 749.50 569.00 L 761.50 550.00 L 778.00 533.50 L 793.00 523.50 L 806.00 517.50 L 828.00 512.50 L 953.00 512.50 L 954.50 514.00 L 926.00 554.50 L 836.00 554.50 L 822.00 557.50 L 812.00 562.50 L 805.00 567.50 L 792.50 582.00 L 786.50 595.00 L 783.50 609.00 L 784.50 624.00 L 787.50 635.00 L 792.50 645.00 L 806.00 660.50 L 822.00 669.50 L 834.00 672.50 L 959.00 672.50 L 960.50 674.00 L 959.50 676.00 L 933.00 714.50 Z M 429.50 683.00 L 442.00 680.50 L 457.00 673.50 L 467.00 666.50 L 475.50 658.00 L 485.50 643.00 L 490.50 630.00 L 492.50 620.00 L 492.50 604.00 L 489.50 590.00 L 482.50 575.00 L 476.50 566.00 L 462.00 552.50 L 447.00 544.50 L 438.00 541.50 L 427.00 539.50 L 411.00 539.50 L 400.00 541.50 L 381.00 549.50 L 369.00 558.50 L 361.50 567.00 L 356.50 574.00 L 348.50 593.00 L 346.50 602.00 L 346.50 622.00 L 350.50 637.00 L 356.50 649.00 L 366.50 662.00 L 378.00 671.50 L 389.00 677.50 L 404.00 682.50 L 429.50 683.00 Z M 646.00 929.50 L 604.00 927.50 L 558.00 918.50 L 530.00 909.50 L 511.00 901.50 L 471.00 879.50 L 430.00 848.50 L 408.50 828.00 L 392.50 810.00 L 366.50 774.00 L 354.50 753.00 L 344.50 730.00 L 346.00 728.50 L 364.00 737.50 L 382.00 742.50 L 416.00 745.50 L 427.50 762.00 L 447.50 786.00 L 469.00 806.50 L 488.00 821.50 L 508.00 834.50 L 531.00 846.50 L 571.00 861.50 L 592.00 866.50 L 623.00 870.50 L 656.00 870.50 L 697.00 864.50 L 727.00 855.50 L 751.00 845.50 L 780.00 829.50 L 802.00 813.50 L 807.50 818.00 L 837.50 855.00 L 828.00 864.50 L 799.00 884.50 L 767.00 901.50 L 748.00 909.50 L 717.00 919.50 L 695.00 924.50 L 646.00 929.50 Z"
     fill="#FFFFFF"
     fill-rule="evenodd"
     id="path2"
     style="stroke:none;stroke-opacity:1;stroke-width:2;stroke-dasharray:none" />
  <path
     d="M 737.00 359.50 L 688.00 344.50 L 646.00 339.50 L 643.50 337.00 L 644.50 283.00 L 646.00 281.50 L 666.00 282.50 L 704.00 288.50 L 729.00 295.50 L 759.00 307.50 L 761.50 311.00 L 740.50 355.00 L 737.00 359.50 Z M 820.00 415.50 L 791.00 391.50 L 756.50 369.00 L 770.50 339.00 L 782.00 319.50 L 789.00 322.50 L 817.00 340.50 L 834.00 353.50 L 857.50 375.00 L 857.50 377.00 L 820.00 415.50 Z M 865.00 474.50 L 834.50 431.00 L 873.00 394.50 L 875.00 394.50 L 894.50 419.00 L 911.50 448.00 L 865.00 474.50 Z M 883.00 500.50 L 877.00 500.50 L 875.50 499.00 L 873.50 493.00 L 876.00 490.50 L 919.00 467.50 L 922.50 470.00 L 931.50 491.00 L 930.00 494.50 L 883.00 500.50 Z M 394.00 650.50 L 391.00 649.50 L 388.50 646.00 L 388.50 578.00 L 392.00 572.50 L 399.00 574.50 L 457.50 610.00 L 457.50 612.00 L 454.00 615.50 L 394.00 650.50 Z M 900.00 781.50 L 857.50 751.00 L 872.00 726.50 L 923.00 736.50 L 924.50 738.00 L 924.50 741.00 L 914.50 760.00 L 900.00 781.50 Z M 854.00 840.50 L 818.50 799.00 L 844.00 769.50 L 846.00 769.50 L 888.50 800.00 L 874.50 819.00 L 854.00 840.50 Z"
     fill="#FF5A0A"
     fill-rule="evenodd"
     id="path3"
     style="stroke:none;stroke-opacity:1;stroke-width:2;stroke-dasharray:none" />
</svg>
